<svg width="42" height="43" viewBox="0 0 42 43" fill="none" xmlns="http://www.w3.org/2000/svg">
<path d="M41.5625 3.25C41.5625 2.43777 41.2398 1.65882 40.6655 1.08449C40.0912 0.510155 39.3122 0.1875 38.5 0.1875H3.5C2.68777 0.1875 1.90882 0.510155 1.33449 1.08449C0.760155 1.65882 0.4375 2.43777 0.4375 3.25V16.0906C0.4375 35.3406 16.7781 41.75 20.0594 42.8219C20.67 43.0254 21.33 43.0254 21.9406 42.8219C25.2219 41.75 41.5625 35.3406 41.5625 16.0906V3.25ZM21.1313 40.3281C21.0907 40.3492 21.0457 40.3602 21 40.3602C20.9543 40.3602 20.9093 40.3492 20.8687 40.3281C18.8125 39.65 11.025 36.6531 6.45312 29.0188L21 18.8469L35.5469 29.0188C30.975 36.6531 23.1875 39.65 21.1313 40.3281ZM36.7719 26.6781L21.7437 16.1781C21.5287 16.0183 21.2679 15.932 21 15.932C20.7321 15.932 20.4713 16.0183 20.2563 16.1781L5.22813 26.6781C3.91563 23.7469 3.0625 20.2469 3.0625 16.0906V3.25C3.0625 3.13397 3.10859 3.02269 3.19064 2.94064C3.27269 2.85859 3.38397 2.8125 3.5 2.8125H38.5C38.616 2.8125 38.7273 2.85859 38.8094 2.94064C38.8914 3.02269 38.9375 3.13397 38.9375 3.25V16.0906C38.9375 20.2469 38.0844 23.7469 36.7719 26.6781Z" fill="black"/>
</svg>
