<svg width="32" height="32" viewBox="0 0 32 32" fill="none" xmlns="http://www.w3.org/2000/svg">
<path d="M28.775 26.625C26.8402 23.2876 23.6778 20.8384 19.9625 19.8C21.7157 18.9095 23.1178 17.4545 23.9427 15.6695C24.7677 13.8845 24.9673 11.8737 24.5095 9.96142C24.0517 8.04909 22.9631 6.34671 21.4192 5.12886C19.8754 3.911 17.9664 3.24866 16 3.24866C14.0336 3.24866 12.1246 3.911 10.5807 5.12886C9.0369 6.34671 7.94828 8.04909 7.49046 9.96142C7.03263 11.8737 7.23229 13.8845 8.05723 15.6695C8.88218 17.4545 10.2843 18.9095 12.0375 19.8C8.32221 20.8384 5.15981 23.2876 3.22499 26.625C3.17399 26.7099 3.14061 26.8042 3.12685 26.9023C3.11308 27.0004 3.11922 27.1002 3.14488 27.1959C3.17055 27.2916 3.21522 27.3811 3.27623 27.4591C3.33724 27.5371 3.41334 27.602 3.49999 27.65C3.58534 27.6993 3.67956 27.7313 3.77728 27.7442C3.875 27.757 3.97429 27.7505 4.06949 27.725C4.16468 27.6994 4.25391 27.6554 4.33207 27.5953C4.41023 27.5353 4.47578 27.4604 4.52499 27.375C5.6879 25.3607 7.36056 23.688 9.37485 22.525C11.3891 21.362 13.6741 20.7497 16 20.7497C18.3259 20.7497 20.6108 21.362 22.6251 22.525C24.6394 23.688 26.3121 25.3607 27.475 27.375C27.5409 27.4891 27.6356 27.5838 27.7497 27.6496C27.8638 27.7155 27.9933 27.7501 28.125 27.75C28.2563 27.748 28.3851 27.7136 28.5 27.65C28.5866 27.602 28.6627 27.5371 28.7238 27.4591C28.7848 27.3811 28.8294 27.2916 28.8551 27.1959C28.8808 27.1002 28.8869 27.0004 28.8731 26.9023C28.8594 26.8042 28.826 26.7099 28.775 26.625ZM8.74999 12C8.74999 10.5661 9.1752 9.16438 9.97184 7.97213C10.7685 6.77987 11.9008 5.85062 13.2255 5.30188C14.5503 4.75315 16.008 4.60957 17.4144 4.88932C18.8208 5.16906 20.1126 5.85955 21.1265 6.87349C22.1404 7.88742 22.8309 9.17924 23.1107 10.5856C23.3904 11.992 23.2469 13.4497 22.6981 14.7745C22.1494 16.0992 21.2201 17.2315 20.0279 18.0282C18.8356 18.8248 17.4339 19.25 16 19.25C14.0772 19.25 12.2331 18.4862 10.8735 17.1265C9.51383 15.7669 8.74999 13.9228 8.74999 12Z" fill="black"/>
</svg>
