<svg width="24" height="24" viewBox="0 0 24 24" fill="none" xmlns="http://www.w3.org/2000/svg">
<path d="M18.2346 18.2342C16.5792 19.8841 14.3374 20.8106 12.0002 20.8106C9.66303 20.8106 7.42116 19.8841 5.76582 18.2342C5.66216 18.1275 5.60418 17.9846 5.60418 17.8358C5.60418 17.687 5.66216 17.5441 5.76582 17.4373C5.81742 17.3838 5.87931 17.3411 5.94777 17.312C6.01623 17.2829 6.08986 17.2679 6.16426 17.2679C6.23865 17.2679 6.31229 17.2829 6.38075 17.312C6.44921 17.3411 6.51109 17.3838 6.5627 17.4373C7.63799 18.512 9.00778 19.2437 10.4989 19.54C11.99 19.8362 13.5355 19.6837 14.9399 19.1017C16.3443 18.5197 17.5447 17.5344 18.3892 16.2703C19.2337 15.0062 19.6845 13.5201 19.6845 11.9998C19.6845 10.4796 19.2337 8.99348 18.3892 7.72937C17.5447 6.46527 16.3443 5.47994 14.9399 4.89796C13.5355 4.31597 11.99 4.16347 10.4989 4.45972C9.00778 4.75598 7.63799 5.48768 6.5627 6.56234L4.34082 8.78422H7.48145C7.63063 8.78422 7.7737 8.84348 7.87919 8.94897C7.98468 9.05446 8.04395 9.19753 8.04395 9.34672C8.04395 9.4959 7.98468 9.63898 7.87919 9.74446C7.7737 9.84995 7.63063 9.90922 7.48145 9.90922H2.98145C2.83226 9.90922 2.68919 9.84995 2.5837 9.74446C2.47821 9.63898 2.41895 9.4959 2.41895 9.34672V4.84672C2.41895 4.69753 2.47821 4.55446 2.5837 4.44897C2.68919 4.34348 2.83226 4.28422 2.98145 4.28422C3.13063 4.28422 3.2737 4.34348 3.37919 4.44897C3.48468 4.55446 3.54395 4.69753 3.54395 4.84672V7.98734L5.76582 5.76547C7.41928 4.11201 9.66185 3.18311 12.0002 3.18311C14.3385 3.18311 16.5811 4.11201 18.2346 5.76547C19.888 7.41893 20.8169 9.6615 20.8169 11.9998C20.8169 14.3382 19.888 16.5808 18.2346 18.2342Z" fill="black"/>
</svg>
