<svg width="28" height="33" viewBox="0 0 28 33" fill="none" xmlns="http://www.w3.org/2000/svg">
<g clip-path="url(#clip0_477_1217)">
<path d="M25 2H3C2.20435 2 1.44129 2.32716 0.87868 2.90951C0.31607 3.49186 0 4.2817 0 5.10526L0 27.8772C0 28.7008 0.31607 29.4906 0.87868 30.0729C1.44129 30.6553 2.20435 30.9825 3 30.9825H11.5781V21.1291H7.64062V16.4912H11.5781V12.9564C11.5781 8.93574 13.8906 6.71482 17.4325 6.71482C19.1288 6.71482 20.9025 7.02794 20.9025 7.02794V10.9742H18.9481C17.0225 10.9742 16.4219 12.2111 16.4219 13.4798V16.4912H20.7206L20.0331 21.1291H16.4219V30.9825H25C25.7956 30.9825 26.5587 30.6553 27.1213 30.0729C27.6839 29.4906 28 28.7008 28 27.8772V5.10526C28 4.2817 27.6839 3.49186 27.1213 2.90951C26.5587 2.32716 25.7956 2 25 2Z" fill="black"/>
</g>
<defs>
<clipPath id="clip0_477_1217">
<rect width="28" height="32.9825" fill="white"/>
</clipPath>
</defs>
</svg>
