<svg width="32" height="32" viewBox="0 0 32 32" fill="none" xmlns="http://www.w3.org/2000/svg">
<path d="M16 27.75C15.8726 27.748 15.7479 27.7136 15.6375 27.65C15.5 27.5875 12.4 25.825 9.25 23C4.9375 19.1125 2.75 15.25 2.75 11.5C2.74887 9.94853 3.2455 8.43756 4.16689 7.18926C5.08828 5.94095 6.38582 5.02116 7.8688 4.56507C9.35177 4.10899 10.9419 4.14067 12.4056 4.65547C13.8692 5.17027 15.1291 6.14103 16 7.42505C16.8709 6.14103 18.1308 5.17027 19.5944 4.65547C21.0581 4.14067 22.6482 4.10899 24.1312 4.56507C25.6142 5.02116 26.9117 5.94095 27.8331 7.18926C28.7545 8.43756 29.2511 9.94853 29.25 11.5C29.25 15.25 27.0625 19.1125 22.75 23C19.6 25.825 16.5 27.5875 16.3625 27.65C16.2521 27.7136 16.1274 27.748 16 27.75ZM10 5.75005C8.47501 5.75005 7.01247 6.35585 5.93414 7.43418C4.8558 8.51252 4.25 9.97505 4.25 11.5C4.25 18.6625 13.975 24.9125 16 26.125C18.025 24.9125 27.75 18.6625 27.75 11.5C27.7529 10.1686 27.2937 8.87747 26.4507 7.84691C25.6077 6.81634 24.4332 6.11025 23.1277 5.84914C21.8221 5.58803 20.4664 5.78808 19.2919 6.41514C18.1174 7.04221 17.1969 8.05743 16.6875 9.28755C16.6337 9.42614 16.5392 9.54524 16.4166 9.62921C16.2939 9.71319 16.1487 9.75812 16 9.75812C15.8513 9.75812 15.7061 9.71319 15.5834 9.62921C15.4608 9.54524 15.3663 9.42614 15.3125 9.28755C14.8754 8.2391 14.1376 7.3436 13.1921 6.71403C12.2467 6.08445 11.1359 5.74902 10 5.75005Z" fill="black"/>
</svg>
