<svg width="29" height="29" viewBox="0 0 29 29" fill="none" xmlns="http://www.w3.org/2000/svg">
<g clip-path="url(#clip0_477_1218)">
<path d="M20.6 6.6H22.4667M8.46667 1H19.6667C21.6469 1 23.5461 1.78666 24.9464 3.18694C26.3467 4.58721 27.1333 6.48638 27.1333 8.46667V19.6667C27.1333 21.6469 26.3467 23.5461 24.9464 24.9464C23.5461 26.3467 21.6469 27.1333 19.6667 27.1333H8.46667C6.48638 27.1333 4.58721 26.3467 3.18694 24.9464C1.78666 23.5461 1 21.6469 1 19.6667V8.46667C1 6.48638 1.78666 4.58721 3.18694 3.18694C4.58721 1.78666 6.48638 1 8.46667 1ZM14.0667 19.6667C12.5815 19.6667 11.1571 19.0767 10.1069 18.0265C9.05667 16.9763 8.46667 15.5519 8.46667 14.0667C8.46667 12.5815 9.05667 11.1571 10.1069 10.1069C11.1571 9.05667 12.5815 8.46667 14.0667 8.46667C15.5519 8.46667 16.9763 9.05667 18.0265 10.1069C19.0767 11.1571 19.6667 12.5815 19.6667 14.0667C19.6667 15.5519 19.0767 16.9763 18.0265 18.0265C16.9763 19.0767 15.5519 19.6667 14.0667 19.6667Z" stroke="black" stroke-width="1.86667"/>
</g>
<defs>
<clipPath id="clip0_477_1218">
<rect width="28.1333" height="28.1333" fill="white"/>
</clipPath>
</defs>
</svg>
