<svg width="24" height="24" viewBox="0 0 24 24" fill="none" xmlns="http://www.w3.org/2000/svg">
<path d="M21.403 6.7314H21.3937C21.2784 6.53007 21.1097 6.36458 20.9062 6.25327L12.6562 1.5939C12.4586 1.48303 12.2358 1.4248 12.0093 1.4248C11.7827 1.4248 11.56 1.48303 11.3624 1.5939L3.1124 6.23452C2.92497 6.34085 2.76707 6.49231 2.65303 6.67515L2.6249 6.71265H2.61553C2.5074 6.9113 2.44947 7.13337 2.44678 7.35952V16.6033C2.44647 16.8358 2.50794 17.0642 2.62489 17.2652C2.74185 17.4661 2.91009 17.6324 3.1124 17.747L11.3624 22.3876C11.5385 22.4847 11.7337 22.5423 11.9343 22.5564H12.0937C12.291 22.5409 12.4828 22.4834 12.6562 22.3876L20.9062 17.747C21.1085 17.6324 21.2767 17.4661 21.3937 17.2652C21.5106 17.0642 21.5721 16.8358 21.5718 16.6033V7.37827C21.575 7.15136 21.5167 6.92782 21.403 6.7314ZM11.9155 2.5689L12.0093 2.55015L12.103 2.5689L19.8655 6.93765L16.6124 8.78452L8.6624 4.39702L11.9155 2.5689ZM12.0937 11.3533L4.1624 6.93765L7.50928 5.05327L15.4687 9.44077L12.0937 11.3533ZM3.66553 16.7908C3.63732 16.7724 3.61403 16.7475 3.59769 16.718C3.58135 16.6886 3.57245 16.6557 3.57178 16.622V7.8939L11.5312 12.3283L11.4562 21.1689L3.66553 16.7908ZM20.353 16.7908L12.5812 21.1595L12.6562 12.3283L16.0405 10.4064V14.297C16.0405 14.4462 16.0998 14.5893 16.2053 14.6948C16.3108 14.8003 16.4538 14.8595 16.603 14.8595C16.7522 14.8595 16.8953 14.8003 17.0008 14.6948C17.1063 14.5893 17.1655 14.4462 17.1655 14.297V9.7689L20.4468 7.90327V16.622C20.4461 16.6557 20.4372 16.6886 20.4209 16.718C20.4045 16.7475 20.3812 16.7724 20.353 16.7908Z" fill="black"/>
</svg>
