<svg width="12" height="12" viewBox="0 0 12 12" fill="none" xmlns="http://www.w3.org/2000/svg">
<path d="M11.875 6C11.875 6.09946 11.8355 6.19484 11.7652 6.26517C11.6948 6.33549 11.5995 6.375 11.5 6.375H6.375V11.5C6.375 11.5995 6.33549 11.6948 6.26517 11.7652C6.19484 11.8355 6.09946 11.875 6 11.875C5.90054 11.875 5.80516 11.8355 5.73484 11.7652C5.66451 11.6948 5.625 11.5995 5.625 11.5V6.375H0.5C0.400544 6.375 0.305161 6.33549 0.234835 6.26517C0.164509 6.19484 0.125 6.09946 0.125 6C0.125 5.90054 0.164509 5.80516 0.234835 5.73484C0.305161 5.66451 0.400544 5.625 0.5 5.625H5.625V0.5C5.625 0.400544 5.66451 0.305161 5.73484 0.234835C5.80516 0.164509 5.90054 0.125 6 0.125C6.09946 0.125 6.19484 0.164509 6.26517 0.234835C6.33549 0.305161 6.375 0.400544 6.375 0.5V5.625H11.5C11.5995 5.625 11.6948 5.66451 11.7652 5.73484C11.8355 5.80516 11.875 5.90054 11.875 6Z" fill="black"/>
</svg>
