<svg width="56" height="56" viewBox="0 0 56 56" fill="none" xmlns="http://www.w3.org/2000/svg">
<path d="M48.4025 12.25C48.4025 11.4378 48.0822 10.6588 47.5119 10.0845C46.9417 9.51016 46.1683 9.1875 45.3619 9.1875H10.6116C9.80519 9.1875 9.03179 9.51016 8.46156 10.0845C7.89133 10.6588 7.57098 11.4378 7.57098 12.25V25.0906C7.57098 44.3406 23.795 50.75 27.0528 51.8219C27.6591 52.0254 28.3144 52.0254 28.9207 51.8219C32.1785 50.75 48.4025 44.3406 48.4025 25.0906V12.25ZM28.1171 49.3281C28.0768 49.3492 28.0321 49.3602 27.9867 49.3602C27.9414 49.3602 27.8967 49.3492 27.8564 49.3281C25.8149 48.65 18.0829 45.6531 13.5437 38.0188L27.9867 27.8469L42.4298 38.0188C37.8906 45.6531 30.1586 48.65 28.1171 49.3281ZM43.6461 35.6781L28.7252 25.1781C28.5117 25.0183 28.2528 24.932 27.9867 24.932C27.7207 24.932 27.4618 25.0183 27.2483 25.1781L12.3274 35.6781C11.0243 32.7469 10.1772 29.2469 10.1772 25.0906V12.25C10.1772 12.134 10.223 12.0227 10.3045 11.9406C10.3859 11.8586 10.4964 11.8125 10.6116 11.8125H45.3619C45.4771 11.8125 45.5876 11.8586 45.669 11.9406C45.7505 12.0227 45.7963 12.134 45.7963 12.25V25.0906C45.7963 29.2469 44.9492 32.7469 43.6461 35.6781Z" fill="black"/>
</svg>
