<svg width="56" height="56" viewBox="0 0 56 56" fill="none" xmlns="http://www.w3.org/2000/svg">
<path d="M29.3124 17.5V27.2344L37.7562 32.1125C37.9056 32.1987 38.0365 32.3134 38.1415 32.4502C38.2466 32.587 38.3236 32.7431 38.3683 32.9097C38.413 33.0763 38.4244 33.25 38.402 33.421C38.3795 33.592 38.3236 33.7569 38.2374 33.9063C38.1512 34.0556 38.0365 34.1866 37.8997 34.2916C37.7629 34.3966 37.6068 34.4737 37.4402 34.5184C37.2737 34.5631 37.0999 34.5745 36.9289 34.5521C36.7579 34.5296 36.5931 34.4737 36.4437 34.3875L27.3437 29.1375H27.3218L27.2562 29.0938L27.1906 29.05H27.1468L27.1031 28.9844H27.0593L27.0156 28.9188L26.9718 28.875L26.9281 28.8313V28.7875L26.8843 28.7219C26.8843 28.7 26.8624 28.6781 26.8624 28.6563C26.8624 28.6344 26.8406 28.6344 26.8406 28.6125L26.7968 28.5469C26.7968 28.525 26.7968 28.5031 26.7749 28.5031C26.7754 28.4726 26.7679 28.4424 26.7531 28.4156V28.3719C26.7451 28.363 26.7391 28.3526 26.7354 28.3413C26.7316 28.33 26.7302 28.3181 26.7312 28.3063V28.2406C26.7233 28.2318 26.7172 28.2214 26.7135 28.2101C26.7097 28.1988 26.7083 28.1869 26.7093 28.175V17.5C26.7093 17.1519 26.8476 16.8181 27.0937 16.5719C27.3399 16.3258 27.6737 16.1875 28.0218 16.1875C28.3699 16.1875 28.7037 16.3258 28.9499 16.5719C29.196 16.8181 29.3343 17.1519 29.3343 17.5H29.3124ZM50.1374 22.5313C50.1825 22.463 50.2192 22.3895 50.2468 22.3125C50.2852 22.2436 50.3147 22.1701 50.3343 22.0938C50.3343 22.0281 50.3562 21.9406 50.3562 21.8531V13.1031C50.3562 12.755 50.2179 12.4212 49.9718 12.1751C49.7256 11.9289 49.3918 11.7906 49.0437 11.7906C48.6956 11.7906 48.3617 11.9289 48.1156 12.1751C47.8695 12.4212 47.7312 12.755 47.7312 13.1031V18.6375L42.5468 13.4531C39.6703 10.5794 36.0064 8.62297 32.0182 7.83117C28.03 7.03936 23.8966 7.44772 20.1404 9.00463C16.3843 10.5615 13.174 13.1971 10.9154 16.5782C8.65689 19.9592 7.45142 23.934 7.45142 28C7.45142 32.066 8.65689 36.0408 10.9154 39.4219C13.174 42.8029 16.3843 45.4385 20.1404 46.9954C23.8966 48.5523 28.03 48.9607 32.0182 48.1689C36.0064 47.377 39.6703 45.4206 42.5468 42.5469C42.7887 42.2979 42.924 41.9644 42.924 41.6172C42.924 41.27 42.7887 40.9365 42.5468 40.6875C42.4264 40.5625 42.282 40.463 42.1223 40.3951C41.9625 40.3271 41.7907 40.2921 41.6171 40.2921C41.4435 40.2921 41.2717 40.3271 41.112 40.3951C40.9522 40.463 40.8078 40.5625 40.6874 40.6875C38.1784 43.195 34.9822 44.9024 31.503 45.5936C28.0237 46.2849 24.4177 45.929 21.1406 44.5711C17.8636 43.2131 15.0628 40.914 13.0922 37.9644C11.1217 35.0149 10.07 31.5473 10.07 28C10.07 24.4528 11.1217 20.9852 13.0922 18.0356C15.0628 15.086 17.8636 12.7869 21.1406 11.4289C24.4177 10.071 28.0237 9.71514 31.503 10.4064C34.9822 11.0977 38.1784 12.805 40.6874 15.3125L45.8718 20.4969H40.2937C39.9456 20.4969 39.6117 20.6352 39.3656 20.8813C39.1195 21.1274 38.9812 21.4613 38.9812 21.8094C38.9812 22.1575 39.1195 22.4913 39.3656 22.7375C39.6117 22.9836 39.9456 23.1219 40.2937 23.1219H49.2843L49.5249 23.0563L49.7437 22.9469H49.7656L49.9624 22.7938L50.1374 22.575V22.5313Z" fill="black"/>
</svg>
