<svg width="32" height="32" viewBox="0 0 32 32" fill="none" xmlns="http://www.w3.org/2000/svg">
<path d="M28.525 27.475L22.9625 21.9C24.8885 19.6983 25.8835 16.8342 25.7373 13.9126C25.591 10.9911 24.315 8.24068 22.1788 6.24233C20.0425 4.24397 17.2132 3.1541 14.2884 3.20286C11.3636 3.25163 8.57218 4.43521 6.50373 6.50367C4.43527 8.57212 3.25169 11.3635 3.20292 14.2883C3.15416 17.2132 4.24404 20.0425 6.24239 22.1787C8.24074 24.315 10.9911 25.591 13.9127 25.7372C16.8343 25.8834 19.6983 24.8885 21.9 22.9625L27.475 28.525C27.6143 28.6642 27.8031 28.7424 28 28.7424C28.1969 28.7424 28.3858 28.6642 28.525 28.525C28.6643 28.3857 28.7425 28.1969 28.7425 28C28.7425 27.803 28.6643 27.6142 28.525 27.475ZM4.75002 14.5C4.75002 12.5716 5.32184 10.6865 6.39319 9.08315C7.46453 7.47977 8.98727 6.23008 10.7689 5.49213C12.5504 4.75418 14.5108 4.56109 16.4021 4.9373C18.2935 5.3135 20.0307 6.2421 21.3943 7.60566C22.7579 8.96923 23.6865 10.7065 24.0627 12.5978C24.4389 14.4891 24.2458 16.4495 23.5078 18.2311C22.7699 20.0127 21.5202 21.5354 19.9168 22.6068C18.3134 23.6781 16.4284 24.25 14.5 24.25C11.9152 24.2466 9.43714 23.2184 7.60938 21.3906C5.78162 19.5628 4.75332 17.0848 4.75002 14.5Z" fill="black"/>
</svg>
