<svg width="56" height="56" viewBox="0 0 56 56" fill="none" xmlns="http://www.w3.org/2000/svg">
<path d="M53.8125 27.9998C53.8139 30.3371 53.1219 32.6223 51.824 34.5662C50.5261 36.51 48.6807 38.0252 46.5214 38.9198C44.3621 39.8145 41.9859 40.0484 39.6935 39.592C37.4012 39.1357 35.2958 38.0095 33.6437 36.356L33.6 36.2904L20.475 21.481C19.1876 20.2024 17.5504 19.3337 15.77 18.9842C13.9895 18.6348 12.1454 18.8205 10.4703 19.5177C8.79515 20.2149 7.36398 21.3925 6.35722 22.902C5.35047 24.4115 4.81322 26.1854 4.81322 27.9998C4.81322 29.8142 5.35047 31.588 6.35722 33.0975C7.36398 34.6071 8.79515 35.7847 10.4703 36.4819C12.1454 37.1791 13.9895 37.3647 15.77 37.0153C17.5504 36.6659 19.1876 35.7971 20.475 34.5185L22.3344 32.4185C22.4438 32.2764 22.5813 32.1582 22.7383 32.0713C22.8953 31.9843 23.0684 31.9305 23.247 31.9131C23.4256 31.8958 23.6059 31.9152 23.7766 31.9702C23.9474 32.0252 24.1051 32.1147 24.24 32.2331C24.3748 32.3514 24.484 32.4962 24.5607 32.6584C24.6374 32.8206 24.68 32.9969 24.6859 33.1762C24.6919 33.3555 24.6609 33.5342 24.5951 33.7011C24.5292 33.868 24.4299 34.0197 24.3031 34.1467L22.4 36.2904L22.3562 36.356C20.7038 38.007 18.599 39.1311 16.3079 39.586C14.0168 40.041 11.6422 39.8065 9.48431 38.9122C7.32644 38.0178 5.48218 36.5038 4.18465 34.5614C2.88712 32.6191 2.19458 30.3357 2.19458 27.9998C2.19458 25.6639 2.88712 23.3805 4.18465 21.4382C5.48218 19.4958 7.32644 17.9818 9.48431 17.0874C11.6422 16.1931 14.0168 15.9586 16.3079 16.4135C18.599 16.8685 20.7038 17.9925 22.3562 19.6435L22.4 19.7092L35.525 34.5185C36.8124 35.7971 38.4495 36.6659 40.23 37.0153C42.0105 37.3647 43.8545 37.1791 45.5297 36.4819C47.2048 35.7847 48.636 34.6071 49.6427 33.0975C50.6495 31.588 51.1867 29.8142 51.1867 27.9998C51.1867 26.1854 50.6495 24.4115 49.6427 22.902C48.636 21.3925 47.2048 20.2149 45.5297 19.5177C43.8545 18.8205 42.0105 18.6348 40.23 18.9842C38.4495 19.3337 36.8124 20.2024 35.525 21.481L33.6656 23.581C33.5561 23.7232 33.4186 23.8414 33.2616 23.9283C33.1047 24.0152 32.9315 24.0691 32.7529 24.0864C32.5744 24.1038 32.3941 24.0844 32.2233 24.0294C32.0525 23.9743 31.8948 23.8849 31.76 23.7665C31.6251 23.6481 31.516 23.5034 31.4393 23.3412C31.3626 23.1789 31.3199 23.0027 31.314 22.8234C31.3081 22.644 31.339 22.4654 31.4049 22.2985C31.4707 22.1316 31.5701 21.9799 31.6968 21.8529L33.6 19.7092L33.6437 19.6435C35.2958 17.9901 37.4012 16.8639 39.6935 16.4075C41.9859 15.9512 44.3621 16.1851 46.5214 17.0798C48.6807 17.9744 50.5261 19.4895 51.824 21.4334C53.1219 23.3773 53.8139 25.6625 53.8125 27.9998Z" fill="black"/>
</svg>
